<svg width="10" height="10" viewBox="0 0 10 10" fill="none" xmlns="http://www.w3.org/2000/svg">
<path d="M6.92736 5.1435C6.92372 4.5228 7.20494 4.055 7.77286 3.71007C7.45522 3.25501 6.97468 3.00473 6.34124 2.95649C5.74148 2.90917 5.08528 3.30598 4.84501 3.30598C4.59109 3.30598 4.01044 2.97288 3.55356 2.97288C2.61068 2.98744 1.60864 3.72463 1.60864 5.2245C1.60864 5.66773 1.68964 6.12552 1.85164 6.59696C2.06825 7.21766 2.84913 8.73846 3.66368 8.71389C4.08962 8.70387 4.39087 8.41173 4.94513 8.41173C5.483 8.41173 5.7615 8.71389 6.23658 8.71389C7.05841 8.70205 7.76466 7.31959 7.97035 6.69707C6.8682 6.17739 6.92736 5.17536 6.92736 5.1435ZM5.97083 2.36765C6.43226 1.81976 6.39039 1.32102 6.37674 1.14172C5.96901 1.16539 5.49757 1.41931 5.22908 1.73148C4.93329 2.0664 4.75946 2.4805 4.79678 2.94739C5.23727 2.98107 5.63954 2.75445 5.97083 2.36765Z" fill="#313131"/>
</svg>
