<svg width="11" height="10" viewBox="0 0 11 10" fill="none" xmlns="http://www.w3.org/2000/svg">
<path d="M9.2489 4.16708H8.93611V4.15096H5.44127V5.70423H7.63583C7.31567 6.60842 6.45535 7.25749 5.44127 7.25749C4.15458 7.25749 3.11137 6.21428 3.11137 4.92759C3.11137 3.64091 4.15458 2.5977 5.44127 2.5977C6.03519 2.5977 6.57554 2.82176 6.98696 3.18774L8.08531 2.08939C7.39178 1.44304 6.46409 1.04443 5.44127 1.04443C3.29679 1.04443 1.55811 2.78312 1.55811 4.92759C1.55811 7.07207 3.29679 8.81075 5.44127 8.81075C7.58574 8.81075 9.32442 7.07207 9.32442 4.92759C9.32442 4.66723 9.29763 4.41307 9.2489 4.16708Z" fill="#FFC107"/>
<path d="M2.00586 3.12018L3.28167 4.05582C3.62688 3.20114 4.46293 2.5977 5.44129 2.5977C6.03522 2.5977 6.57556 2.82176 6.98698 3.18774L8.08533 2.08939C7.3918 1.44304 6.46412 1.04443 5.44129 1.04443C3.94977 1.04443 2.65629 1.8865 2.00586 3.12018Z" fill="#FF3D00"/>
<path d="M5.44136 8.81077C6.44438 8.81077 7.35576 8.42691 8.04482 7.8027L6.84298 6.7857C6.44002 7.09215 5.94762 7.2579 5.44136 7.2575C4.43135 7.2575 3.57375 6.61348 3.25067 5.71472L1.98438 6.69037C2.62704 7.94793 3.93217 8.81077 5.44136 8.81077Z" fill="#4CAF50"/>
<path d="M9.24904 4.16724H8.93625V4.15112H5.44141V5.70439H7.63597C7.48282 6.13472 7.20695 6.51076 6.84245 6.78604L6.84303 6.78565L8.04487 7.80265C7.95983 7.87993 9.32457 6.86934 9.32457 4.92776C9.32457 4.66739 9.29777 4.41324 9.24904 4.16724Z" fill="#1976D2"/>
</svg>
